<svg xmlns="http://www.w3.org/2000/svg" viewBox="0 0 212.6 99.21"><defs><style>.cls-1{fill:#007a9d;}</style></defs><title>Asset 1</title><g id="Layer_2" data-name="Layer 2"><g id="Layer_1-2" data-name="Layer 1"><path d="M25.88,0H65.31A23.82,23.82,0,0,1,89.11,23.8V61.09a23.87,23.87,0,0,1-23.8,23.8H35.88L46.31,70H64.56a9.7,9.7,0,0,0,9.67-9.67V24.64A9.6,9.6,0,0,0,64.56,15H40.76V63.69L25.88,84.89V0Z"/><polygon points="0 0.02 0 84.81 14.88 84.81 14.88 0.02 0 0.02 0 0.02"/><path d="M96.17,0V61.09A23.87,23.87,0,0,0,120,84.89h1.79l.15,14.31h14V84.89H155.6L145.19,70h-9.3V62.13H121.76V70h-1a9.7,9.7,0,0,1-9.67-9.67V21.25L96.17,0Z"/><path class="cls-1" d="M106.2,0l82.6,0a23.84,23.84,0,0,1,23.8,23.8V61.09a23.81,23.81,0,0,1-23.8,23.72c-8.47,0-23.13.08-23.13.08L155.26,70h32.79a9.75,9.75,0,0,0,9.67-9.67V24.64A9.65,9.65,0,0,0,188.05,15H116.76L106.2,0Z"/><path d="M158.21,55.81H150V33.64a2.23,2.23,0,0,0-2.23-2.23h-3.72v24.4h-8.19V33.64a2.22,2.22,0,0,0-2.23-2.23h-3.72c0,8.16,0,16.21,0,24.38h-8.17v-30H153A5.19,5.19,0,0,1,158.21,31V55.81Z"/><path d="M174.35,49.11H187V50.6a5.23,5.23,0,0,1-5.21,5.21H169.16A5.21,5.21,0,0,1,164,50.6c0-2.87,0-12.83,0-19.56a5.21,5.21,0,0,1,5.21-5.21H181.8A5.21,5.21,0,0,1,187,31V44.43H172.13v2.45a2.23,2.23,0,0,0,2.22,2.23Zm-2.22-10.26h6.7V33.64a2.23,2.23,0,0,0-2.24-2.23h-2.23a2.2,2.2,0,0,0-2.23,2.23v5.21Z"/></g></g></svg>