<svg width="305" height="305" xmlns="http://www.w3.org/2000/svg">
 <g>
  <title>background</title>
  <rect x="-1" y="-1" width="307" height="307" id="canvas_background" fill="none"/>
 </g>

 <g>
  <title>Layer 1</title>
  <g display="none" id="svg_1">
   <path d="m153.313564,80.777511c0,6.256 -4.941,11.327 -11.035,11.327l-177.93,0c-6.095,0 -11.035,-5.071 -11.035,-11.327l0,-177.34c0,-6.257 4.94,-11.328 11.035,-11.328l177.93,0c6.094,0 11.035,5.071 11.035,11.328l0,177.34z" fill="#90A4AE" id="svg_2"/>
   <path d="m53.313564,-107.892489l-88.965,0c-6.095,0 -11.035,5.071 -11.035,11.328l0,177.34c0,6.256 4.94,11.327 11.035,11.327l88.965,0l0,-200l0,0.005z" fill="#78909C" id="svg_3"/>
  </g>
  <circle cx="152.723564" cy="152.617511" r="150" fill="#003987" id="svg_4"/>
  <path d="m153.283564,2.627511l0,299.99c82.587,-0.3 149.44,-67.335 149.44,-149.99c0,-82.657 -66.858,-149.69 -149.44,-149.99l0,-0.01z" fill="#003987" id="svg_5"/>
  <path d="m93.633564,112.137511c0,-7.64 2.452,-15.382 7.359,-23.223c4.904,-7.842 12.064,-14.336 21.475,-19.484c9.41,-5.146 20.389,-7.722 32.936,-7.722c11.66,0 21.957,2.153 30.885,6.455c8.927,4.304 15.822,10.155 20.69,17.554c4.865,7.401 7.298,15.442 7.298,24.128c0,6.837 -1.387,12.83 -4.161,17.976c-2.775,5.148 -6.075,9.591 -9.894,13.331c-3.821,3.74 -10.678,10.035 -20.57,18.88c-2.734,2.495 -4.927,4.687 -6.575,6.575c-1.648,1.891 -2.875,3.619 -3.679,5.188c-0.806,1.567 -1.43,3.137 -1.87,4.704c-0.443,1.569 -1.107,4.324 -1.991,8.265c-1.528,8.365 -6.313,12.547 -14.355,12.547c-4.184,0 -7.703,-1.367 -10.557,-4.102c-2.856,-2.733 -4.283,-6.796 -4.283,-12.186c0,-6.756 1.044,-12.607 3.137,-17.554c2.09,-4.946 4.865,-9.29 8.324,-13.029c3.458,-3.74 8.123,-8.183 13.995,-13.331c5.146,-4.503 8.867,-7.902 11.16,-10.194c2.291,-2.292 4.222,-4.845 5.79,-7.661c1.568,-2.814 2.353,-5.87 2.353,-9.168c0,-6.434 -2.394,-11.863 -7.178,-16.287c-4.787,-4.422 -10.96,-6.635 -18.519,-6.635c-8.849,0 -15.364,2.232 -19.545,6.696c-4.183,4.463 -7.721,11.039 -10.617,19.725c-2.735,9.09 -7.923,13.632 -15.563,13.632c-4.505,0 -8.305,-1.587 -11.401,-4.765c-3.097,-3.175 -4.644,-6.614 -4.644,-10.315zm58.874,132.22c-4.906,0 -9.19,-1.589 -12.848,-4.766c-3.661,-3.177 -5.489,-7.618 -5.489,-13.331c0,-5.066 1.768,-9.329 5.308,-12.788c3.538,-3.457 7.881,-5.188 13.029,-5.188c5.067,0 9.329,1.73 12.789,5.188c3.457,3.459 5.188,7.722 5.188,12.788c0,5.632 -1.811,10.055 -5.429,13.271c-3.62,3.216 -7.804,4.826 -12.548,4.826z" fill="#fff" id="svg_6"/>
  <g fill="#D4EFFC" id="svg_7">
   <path d="m186.283564,68.167511c-8.928,-4.302 -19.225,-6.455 -30.885,-6.455c-0.713,0 -1.418,0.011 -2.121,0.027l0,25.498c0.699,-0.031 1.39,-0.069 2.121,-0.069c7.559,0 13.731,2.213 18.519,6.635c4.784,4.424 7.178,9.854 7.178,16.287c0,3.298 -0.784,6.354 -2.353,9.168c-1.568,2.816 -3.499,5.369 -5.79,7.661c-2.293,2.292 -6.014,5.691 -11.16,10.194c-3.201,2.807 -6.03,5.396 -8.514,7.783l0,52.302c6.773,-0.69 10.864,-4.825 12.253,-12.431c0.884,-3.94 1.548,-6.695 1.991,-8.265c0.44,-1.567 1.064,-3.137 1.87,-4.704c0.804,-1.569 2.03,-3.298 3.679,-5.188c1.648,-1.889 3.841,-4.08 6.575,-6.575c9.893,-8.846 16.749,-15.141 20.57,-18.88c3.818,-3.74 7.118,-8.183 9.894,-13.331c2.774,-5.146 4.161,-11.139 4.161,-17.976c0,-8.687 -2.433,-16.728 -7.298,-24.128c-4.867,-7.398 -11.763,-13.25 -20.69,-17.553z" id="svg_8"/>
   <path d="m170.483564,226.267511c0,-5.066 -1.73,-9.329 -5.188,-12.788c-3.28,-3.277 -7.289,-4.983 -12.013,-5.153l0,36.005c4.423,-0.168 8.353,-1.755 11.772,-4.792c3.618,-3.218 5.429,-7.64 5.429,-13.272z" id="svg_9"/>
  </g>
 </g>
</svg>